/* XPM */
static char * bottom_inactive_xpm[] = {
"11 3 2 1",
" 	c #9A999A",
".	c #818179",
"           ",
"           ",
"..........."};
