/* XPM */
static char * bottom_right_active_xpm[] = {
"3 3 2 1",
" 	c #9A999A",
".	c #818179",
"  .",
"  .",
"..."};
