/* XPM */
static char * close_pressed_xpm[] = {
"15 15 86 1",
" 	c None",
".	c #76383E",
"+	c #8A343C",
"@	c #89343C",
"#	c #75363C",
"$	c #75373C",
"%	c #CC7168",
"&	c #E3B290",
"*	c #E3B793",
"=	c #74353B",
"-	c #9F5E56",
";	c #E98373",
">	c #E57E69",
",	c #EA836C",
"'	c #ED856E",
")	c #994442",
"!	c #E66659",
"~	c #E9685A",
"{	c #EC6C5D",
"]	c #EE6E5F",
"^	c #EE6E5E",
"/	c #994441",
"(	c #E8685B",
"_	c #ED6C5E",
":	c #F06F60",
"<	c #FDFDFD",
"[	c #F06F61",
"}	c #9E4944",
"|	c #F07160",
"1	c #F37564",
"2	c #F37665",
"3	c #9D4943",
"4	c #9E4A45",
"5	c #F37663",
"6	c #F67967",
"7	c #F57867",
"8	c #9E4A44",
"9	c #A04D46",
"0	c #F77A66",
"a	c #FC7E67",
"b	c #FB7D67",
"c	c #FB7D66",
"d	c #A14E47",
"e	c #FA7D68",
"f	c #FB7F6B",
"g	c #FA7F6B",
"h	c #A14E46",
"i	c #A34F48",
"j	c #FC836E",
"k	c #FC826D",
"l	c #A24F48",
"m	c #A5534B",
"n	c #FE8871",
"o	c #FE8B74",
"p	c #FD8C74",
"q	c #FEFEFE",
"r	c #A4534B",
"s	c #A5584F",
"t	c #FE9079",
"u	c #FE9A83",
"v	c #FEA188",
"w	c #FEA288",
"x	c #A4584E",
"y	c #A56155",
"z	c #FEA088",
"A	c #FEAE95",
"B	c #FEBF9E",
"C	c #FDC39E",
"D	c #FEC39E",
"E	c #FEC39F",
"F	c #A46055",
"G	c #8B5C54",
"H	c #EBA48E",
"I	c #FEC1A5",
"J	c #FDD6AC",
"K	c #FCD8AB",
"L	c #FBD8AB",
"M	c #87564E",
"N	c #534E4E",
"O	c #886058",
"P	c #A57C6D",
"Q	c #A3866E",
"R	c #A2876D",
"S	c #A47C6D",
"T	c #875F57",
"U	c #4B4445",
" .+++++++++@@# ",
"$%&*********&%=",
"-;>,''''''',>;-",
")!~{]^^^^^]{~!/",
")(_:<<[[[<<:_(/",
"}|12<<<2<<<21|3",
"45667<<<<<76658",
"90abcc<<<ccba09",
"defgg<<<<<ggfeh",
"igjk<<<k<<<kjgl",
"mnopqqpppqqponr",
"stuvwwwwwwwvutx",
"yzABCDEEEDCBAzF",
"GHIJKKKLKKKJIHM",
"NOPQRRRRRRRQSTU"};
