/* XPM */
static char * close_prelight_xpm[] = {
"15 15 100 2",
"  	c None",
". 	c #886058",
"+ 	c #A57C6D",
"@ 	c #A4866E",
"# 	c #A2876D",
"$ 	c #A3866E",
"% 	c #A47C6D",
"& 	c #875F57",
"* 	c #88574F",
"= 	c #EBA48E",
"- 	c #FEC1A5",
"; 	c #FDD6AC",
"> 	c #FCD8AB",
", 	c #FBD8AB",
"' 	c #87564E",
") 	c #A56055",
"! 	c #FEA088",
"~ 	c #FEAA93",
"{ 	c #FEBC9E",
"] 	c #FEC29F",
"^ 	c #FDC29B",
"/ 	c #FDC39D",
"( 	c #FDC29C",
"_ 	c #FCC29C",
": 	c #A46055",
"< 	c #A5584F",
"[ 	c #FE9079",
"} 	c #FE9781",
"| 	c #FEA08A",
"1 	c #FEA389",
"2 	c #FEA387",
"3 	c #FEA488",
"4 	c #FEA489",
"5 	c #FEA18A",
"6 	c #A4584E",
"7 	c #A5534B",
"8 	c #FE8871",
"9 	c #FE8A75",
"0 	c #FD8C74",
"a 	c #FDFDFD",
"b 	c #FD8D74",
"c 	c #A4534B",
"d 	c #A34F48",
"e 	c #FA7F6B",
"f 	c #FD846E",
"g 	c #FC846F",
"h 	c #FC846E",
"i 	c #A24F48",
"j 	c #A14E47",
"k 	c #FA7D68",
"l 	c #FD806B",
"m 	c #FB816D",
"n 	c #FA816C",
"o 	c #FC806B",
"p 	c #A14E46",
"q 	c #A04D46",
"r 	c #F77A66",
"s 	c #FD8068",
"t 	c #FC806A",
"u 	c #FA7F6A",
"v 	c #FC7F68",
"w 	c #9E4A45",
"x 	c #F37663",
"y 	c #F87B67",
"z 	c #F77B68",
"A 	c #9E4A44",
"B 	c #9E4944",
"C 	c #F07160",
"D 	c #F37563",
"E 	c #F47664",
"F 	c #9D4943",
"G 	c #994442",
"H 	c #E8685B",
"I 	c #EC6C5E",
"J 	c #EF6F5F",
"K 	c #FEFEFE",
"L 	c #EF6F60",
"M 	c #ED6C5E",
"N 	c #994441",
"O 	c #E66659",
"P 	c #E8675A",
"Q 	c #EB6B5D",
"R 	c #933E3F",
"S 	c #DA5A53",
"T 	c #DF6156",
"U 	c #E56558",
"V 	c #E5665A",
"W 	c #933E3E",
"X 	c #75373C",
"Y 	c #BE464A",
"Z 	c #D0514F",
"` 	c #D35350",
" .	c #D25351",
"..	c #74353B",
"+.	c #504A4A",
"@.	c #75373D",
"#.	c #89333B",
"$.	c #88333B",
"%.	c #73353B",
"&.	c #4B4445",
"  . + @ # # # # # # # $ % &   ",
"* = - ; > , > > > > > ; - = ' ",
") ! ~ { ] ^ / ^ / ( _ { ~ ! : ",
"< [ } | 1 2 3 2 3 2 4 5 } [ 6 ",
"7 8 9 0 a a b b b a a b 9 8 c ",
"d e f g a a a g a a a g h e i ",
"j k l m n a a a a a n n o k p ",
"q r s t u u a a a u u u v r q ",
"w x y y z a a a a a z z y x A ",
"B C D E a a a E a a a E D C F ",
"G H I J K K L L L K K L M H N ",
"G O P Q Q Q Q Q Q Q Q Q P O N ",
"R S T U V V V V V V V V T S W ",
"X Y Z `  . . . . . . . .Z Y ..",
"+.@.#.#.#.#.#.#.#.#.#.$.$.%.&."};
