/* XPM */
static char * close_inactive_xpm[] = {
"15 15 81 1",
" 	c None",
".	c #B08F8C",
"+	c #B89C97",
"@	c #B8A49C",
"#	c #B8A69C",
"$	c #AF8989",
"%	c #EBBDB7",
"&	c #FBD5CC",
"*	c #FBE7D8",
"=	c #FBE9D7",
"-	c #B48C8C",
";	c #F6C0BC",
">	c #F8C6C2",
",	c #FAD3CA",
"'	c #F9D8CD",
")	c #F7D9CE",
"!	c #F8DACE",
"~	c #B28A8B",
"{	c #F1BAB8",
"]	c #F3BDBA",
"^	c #F5C2BE",
"/	c #F4C5C0",
"(	c #F3C6C1",
"_	c #F3C5C0",
":	c #F4C6C1",
"<	c #F5C1BE",
"[	c #B1898A",
"}	c #EFB7B5",
"|	c #F0B8B7",
"1	c #F0B9B7",
"2	c #F7D6D4",
"3	c #EFB9B7",
"4	c #B08788",
"5	c #ECB2B1",
"6	c #EDB5B3",
"7	c #EEB6B5",
"8	c #EDB5B4",
"9	c #AF8688",
"0	c #EBB0AF",
"a	c #ECB3B2",
"b	c #EBB2B2",
"c	c #ECB2B2",
"d	c #AE8687",
"e	c #E9AEAE",
"f	c #ECB1AF",
"g	c #ECB1B0",
"h	c #EBB1B0",
"i	c #EBB1AF",
"j	c #AD8586",
"k	c #E6ACAC",
"l	c #EAAFAF",
"m	c #EAB0B0",
"n	c #E9AFB0",
"o	c #AD8486",
"p	c #E4AAAB",
"q	c #E7ADAD",
"r	c #E7ADAE",
"s	c #AB8386",
"t	c #E0A7A9",
"u	c #E2A9AB",
"v	c #E3AAAB",
"w	c #E4AAAC",
"x	c #DFA5A8",
"y	c #E0A6A9",
"z	c #E1A8AA",
"A	c #E2A8AA",
"B	c #E2A9AA",
"C	c #A88084",
"D	c #D7A1A5",
"E	c #DBA2A5",
"F	c #DEA4A7",
"G	c #DFA6A9",
"H	c #DFA4A7",
"I	c #9F797F",
"J	c #C4929A",
"K	c #D19BA2",
"L	c #D39CA2",
"M	c #D39CA3",
"N	c #D49CA3",
"O	c #D49CA2",
"P	c #A27C82",
" .+@#######@+. ",
"$%&*=======*&%$",
"-;>,')!)!)),>;-",
"~{]^/((_(_:<]{~",
"[}|122333221|}[",
"456722282228654",
"905ab22222bc509",
"defghh222hhifed",
"jkllm22222nllkj",
"opqr222r222rqpo",
"stuv22ppp22wuts",
"sxyzAAAAAABAyxs",
"CDEFGGGGGGGHEDC",
"IJKLMMMMMMNOKJI",
" IPPPPPPPPPPPI "};
