/* XPM */
static char * close_active_xpm[] = {
"15 15 97 2",
"  	c None",
". 	c #7E5651",
"+ 	c #987366",
"@ 	c #96866F",
"# 	c #96896F",
"$ 	c #95896F",
"% 	c #95896E",
"& 	c #95856E",
"* 	c #977365",
"= 	c #7C544E",
"- 	c #7A4F4C",
"; 	c #E2877A",
"> 	c #F7A994",
", 	c #F4CBA8",
"' 	c #F4CEA8",
") 	c #E2867A",
"! 	c #784D49",
"~ 	c #915450",
"{ 	c #EF8279",
"] 	c #F38C83",
"^ 	c #F3A391",
"/ 	c #F0AD97",
"( 	c #ECB099",
"_ 	c #EEAF99",
": 	c #EDB098",
"< 	c #EDB099",
"[ 	c #EDAF98",
"} 	c #90534E",
"| 	c #8D504E",
"1 	c #E77773",
"2 	c #EB7C77",
"3 	c #EE857E",
"4 	c #EB8B81",
"5 	c #E98D82",
"6 	c #EA8D82",
"7 	c #E98C82",
"8 	c #8C4E4C",
"9 	c #8B4C4C",
"0 	c #E4716E",
"a 	c #E6726F",
"b 	c #E57570",
"c 	c #FDFDFD",
"d 	c #E47671",
"e 	c #8A4B4B",
"f 	c #894949",
"g 	c #E06969",
"h 	c #E26E6C",
"i 	c #E36E6D",
"j 	c #E36E6C",
"k 	c #884848",
"l 	c #874848",
"m 	c #DE6665",
"n 	c #E06B69",
"o 	c #864647",
"p 	c #864748",
"q 	c #DC6463",
"r 	c #DF6866",
"s 	c #DF6967",
"t 	c #854646",
"u 	c #844546",
"v 	c #D86060",
"w 	c #DD6564",
"x 	c #DC6565",
"y 	c #834444",
"z 	c #D55D5F",
"A 	c #D86061",
"B 	c #D96162",
"C 	c #824345",
"D 	c #7F4346",
"E 	c #CE585D",
"F 	c #D25B5F",
"G 	c #D45C60",
"H 	c #FEFEFE",
"I 	c #D45D61",
"J 	c #7E4144",
"K 	c #CB565B",
"L 	c #CD575C",
"M 	c #D05A5E",
"N 	c #D15A5E",
"O 	c #794044",
"P 	c #C1505A",
"Q 	c #C95459",
"R 	c #CB585D",
"S 	c #783E43",
"T 	c #603E43",
"U 	c #A54352",
"V 	c #B94A57",
"W 	c #BA4A58",
"X 	c #A54252",
"Y 	c #5D393F",
"Z 	c #4F4D4D",
"` 	c #603E44",
" .	c #6E3842",
"..	c #6D3841",
"+.	c #6D3741",
"@.	c #6D3740",
"#.	c #484646",
"  . + @ # $ # % % % % & * =   ",
"- ; > , ' ' ' ' ' ' ' , > ) ! ",
"~ { ] ^ / ( _ : < [ [ ^ ] { } ",
"| 1 2 3 4 5 6 5 5 7 6 3 2 1 8 ",
"9 0 a b c c d d d c c b a 0 e ",
"f g h i c c c j c c c j h g k ",
"l m n n n c c c c c n n n m o ",
"p q r s s s c c c s s s r q t ",
"u v w w x c c c c c x w w v y ",
"u z A B c c c B c c c B A z C ",
"D E F G H H I I I H H G F E J ",
"D K L M N N N N N N N M L K J ",
"O P Q R R R R R R R R R Q P S ",
"T U V W W W W W W W W W V X Y ",
"Z `  . .....+.+.+.+.@.@.@.Y #."};
