/* XPM */
static char * hide_inactive_xpm[] = {
"15 15 40 1",
" 	c None",
".	c #7E8385",
"+	c #878D8E",
"@	c #888E90",
"#	c #99A0A2",
"$	c #A9B0B2",
"%	c #AAB1B3",
"&	c #7D8384",
"*	c #9CA3A5",
"=	c #A4ABAD",
"-	c #7A8082",
";	c #969D9F",
">	c #9FA6A8",
",	c #7A8182",
"'	c #959C9E",
")	c #9DA4A6",
"!	c #949B9D",
"~	c #9BA2A4",
"{	c #7A8081",
"]	c #939A9C",
"^	c #798081",
"/	c #91989A",
"(	c #797F80",
"_	c #8F9698",
":	c #979EA0",
"<	c #616368",
"[	c #787F80",
"}	c #8D9496",
"|	c #D6D7D9",
"1	c #787E7F",
"2	c #8A9193",
"3	c #777E7F",
"4	c #888F91",
"5	c #8E9597",
"6	c #777B7C",
"7	c #82898A",
"8	c #858C8E",
"9	c #757B7C",
"0	c #72787A",
"a	c #717879",
" .+@@@@@@@@@+. ",
".#$%%%%%%%%%$#.",
"&*===========*&",
"-;>>>>>>>>>>>;-",
",')))))))))))',",
",!~~~~~~~~~~~!,",
"{]~~~~~~~~~~~]{",
"^/###########/^",
"(_:::<<<<<:::_(",
"[}!!!|||||!!!}[",
"12///|||||///21",
"345555555555543",
"678888888888876",
" 90aaaaaaaaa09 ",
"               "};
