/* XPM */
static char * hide_prelight_xpm[] = {
"15 15 59 1",
" 	c None",
".	c #55595A",
"+	c #6A6F71",
"@	c #6B7172",
"#	c #6B7072",
"$	c #6A6F70",
"%	c #545859",
"&	c #575B5C",
"*	c #989FA1",
"=	c #AFB6B8",
"-	c #B0B7B9",
";	c #56595B",
">	c #696F70",
",	c #AEB5B7",
"'	c #696E70",
")	c #656A6C",
"!	c #A8AFB1",
"~	c #ABB2B4",
"{	c #ACB3B5",
"]	c #666B6D",
"^	c #A7AEB0",
"/	c #676C6E",
"(	c #A5ACAE",
"_	c #A3AAAC",
":	c #656B6C",
"<	c #A2A9AB",
"[	c #A1A8AA",
"}	c #63686A",
"|	c #9DA4A6",
"1	c #9BA2A4",
"2	c #616668",
"3	c #99A0A2",
"4	c #979EA0",
"5	c #616368",
"6	c #606667",
"7	c #5E6465",
"8	c #939A9C",
"9	c #909799",
"0	c #FEFEFE",
"a	c #5E6365",
"b	c #5B6163",
"c	c #8C9395",
"d	c #888F91",
"e	c #5B6062",
"f	c #595F61",
"g	c #868D8F",
"h	c #82898B",
"i	c #595E60",
"j	c #555A5C",
"k	c #7E8587",
"l	c #7B8183",
"m	c #545A5C",
"n	c #434748",
"o	c #606668",
"p	c #6A7173",
"q	c #414547",
"r	c #444A4C",
"s	c #444A4B",
"t	c #44494B",
" .+@@@@@@@##$% ",
"&*=---------=*;",
">,-----------,'",
")!~{~~~~~~~~~!)",
"]^!!!!!!!!!!!^]",
"/(___________(/",
":<[[[[[[[[[[[<)",
"}|11111111111|}",
"234445555544436",
"78999000009998a",
"bcddd00000dddce",
"fghhhhhhhhhhhgi",
"jklllllllllllkm",
"nopppppppppppoq",
" nrrrrsssstttq "};
