/* XPM */
static char * hide_active_xpm[] = {
"15 15 61 1",
" 	c None",
".	c #565859",
"+	c #6B6F70",
"@	c #6F7274",
"#	c #6E7274",
"$	c #6E7273",
"%	c #6A6E6F",
"&	c #535657",
"*	c #575A5A",
"=	c #8E9597",
"-	c #A9B0B2",
";	c #ACB3B5",
">	c #8E9496",
",	c #545758",
"'	c #666A6B",
")	c #A1A8AA",
"!	c #A2A9AB",
"~	c #646869",
"{	c #616465",
"]	c #989FA1",
"^	c #9BA2A4",
"/	c #5F6364",
"(	c #616566",
"_	c #969D9F",
":	c #626566",
"<	c #949B9D",
"[	c #939A9C",
"}	c #606465",
"|	c #92999B",
"1	c #8F9698",
"2	c #8D9496",
"3	c #5D6162",
"4	c #8C9395",
"5	c #8A9193",
"6	c #616368",
"7	c #5C5F60",
"8	c #878E90",
"9	c #858C8E",
"0	c #FEFEFE",
"a	c #5A5E5F",
"b	c #5A5D5E",
"c	c #82898B",
"d	c #808789",
"e	c #585C5D",
"f	c #7E8587",
"g	c #7A8183",
"h	c #7B8284",
"i	c #565A5B",
"j	c #555859",
"k	c #777E80",
"l	c #757C7E",
"m	c #535757",
"n	c #4A4C4C",
"o	c #5F6667",
"p	c #686F71",
"q	c #5F6567",
"r	c #464849",
"s	c #494C4D",
"t	c #484C4D",
"u	c #484B4C",
"v	c #474949",
" .+@#$$$$$$$%& ",
"*=-;;;;;;;;;->,",
"')!!!!!!!!!!!)~",
"{]^^^^^^^^^^^]/",
"(_]]]]]]]]]]]_/",
":<[[[[[[[[[[[<}",
"}[|||||||||||[/",
"/12222222222213",
"345556666655547",
"78999000009998a",
"bcddd00000dddce",
"efgghggggggggfi",
"jklllllllllllkm",
"nopppppppppppqr",
" nssssssttuuuv "};
