/* XPM */
static char * hide_pressed_xpm[] = {
"15 15 58 1",
" 	c None",
".	c #525658",
"+	c #626869",
"@	c #63696A",
"#	c #63686A",
"$	c #626769",
"%	c #515556",
"&	c #798082",
"*	c #818789",
"=	c #82888A",
"-	c #474D4F",
";	c #697072",
">	c #6A7173",
",	c #474C4E",
"'	c #464C4E",
")	c #6C7274",
"!	c #71787A",
"~	c #464B4D",
"{	c #4A4F51",
"]	c #72797B",
"^	c #777E80",
"/	c #494F51",
"(	c #4F5456",
"_	c #7A8183",
":	c #7C8385",
"<	c #4E5456",
"[	c #53585A",
"}	c #81888A",
"|	c #82898B",
"1	c #525859",
"2	c #575D5E",
"3	c #868D8F",
"4	c #848B8D",
"5	c #575C5E",
"6	c #5B6062",
"7	c #8B9294",
"8	c #878E90",
"9	c #616368",
"0	c #5E6365",
"a	c #8E9597",
"b	c #888F91",
"c	c #FEFEFE",
"d	c #5D6364",
"e	c #5E6465",
"f	c #92999B",
"g	c #959C9E",
"h	c #939A9C",
"i	c #666B6D",
"j	c #A4ABAD",
"k	c #A1A8AA",
"l	c #535758",
"m	c #93999B",
"n	c #ACB3B5",
"o	c #AEB5B7",
"p	c #696E6F",
"q	c #6A7071",
"r	c #6A6F71",
"s	c #686D6F",
" .+@@@@@@@##$% ",
".&*=========*&%",
"-;>>>>>>>>>>>;,",
"')!!!!!!!!!!!)~",
"{]^^^^^^^^^^^]/",
"(_:::::::::::_<",
"[}|||||||||||}1",
"234444444444435",
"678889999988876",
"0abbbcccccbbbad",
"efaaacccccaaaf0",
"eghhhhhhhhhhhg0",
"ijkkkkkkkkkkkji",
"lmnooooooooonf%",
" lpqqqqqqqrrs% "};
