/* XPM */
static char * left_inactive_xpm[] = {
"3 11 2 1",
" 	c #818179",
".	c #9A999A",
" ..",
" ..",
" ..",
" ..",
" ..",
" ..",
" ..",
" ..",
" ..",
" ..",
" .."};
