/* XPM */
static char * maximize_active_xpm[] = {
"15 15 61 1",
" 	c None",
".	c #555758",
"+	c #6A6E6F",
"@	c #6E7173",
"#	c #6D7173",
"$	c #6D7172",
"%	c #696D6E",
"&	c #525556",
"*	c #565959",
"=	c #8D9496",
"-	c #A8AFB1",
";	c #ABB2B4",
">	c #8D9395",
",	c #535657",
"'	c #65696A",
")	c #A0A7A9",
"!	c #A1A8AA",
"~	c #636768",
"{	c #606364",
"]	c #979EA0",
"^	c #9AA1A3",
"/	c #616368",
"(	c #5E6263",
"_	c #606465",
":	c #959C9E",
"<	c #FEFEFE",
"[	c #616465",
"}	c #939A9C",
"|	c #92999B",
"1	c #5F6364",
"2	c #91989A",
"3	c #8E9597",
"4	c #8C9395",
"5	c #5C6061",
"6	c #8B9294",
"7	c #899092",
"8	c #5B5E5F",
"9	c #868D8F",
"0	c #848B8D",
"a	c #595D5E",
"b	c #595C5D",
"c	c #81888A",
"d	c #7F8688",
"e	c #575B5C",
"f	c #7D8486",
"g	c #798082",
"h	c #7A8183",
"i	c #55595A",
"j	c #545758",
"k	c #767D7F",
"l	c #747B7D",
"m	c #525656",
"n	c #494B4B",
"o	c #5E6566",
"p	c #676E70",
"q	c #5E6466",
"r	c #454748",
"s	c #484B4C",
"t	c #474B4C",
"u	c #474A4B",
"v	c #464848",
" .+@#$$$$$$$%& ",
"*=-;;;;;;;;;->,",
"')!!!!!!!!!!!)~",
"{]^^///////^^](",
"_:]]<<<<<<<]]:(",
"[}||<<<<<<<||}1",
"1|22<22222<22|(",
"(344<44444<4435",
"5677<77777<7768",
"8900</////<009a",
"bcdd<<<<<<<ddce",
"efgghggggggggfi",
"jklllllllllllkm",
"nopppppppppppqr",
" nssssssttuuuv "};
