/* XPM */
static char * maximize_inactive_xpm[] = {
"15 15 39 1",
" 	c None",
".	c #7F8586",
"+	c #888E8F",
"@	c #898F91",
"#	c #9AA1A3",
"$	c #AAB1B3",
"%	c #ABB2B4",
"&	c #7E8485",
"*	c #9DA4A6",
"=	c #A5ACAE",
"-	c #7B8183",
";	c #979EA0",
">	c #A0A7A9",
",	c #7B8283",
"'	c #969D9F",
")	c #9EA5A7",
"!	c #E1E1E1",
"~	c #959C9E",
"{	c #9CA3A5",
"]	c #7B8182",
"^	c #949B9D",
"/	c #7A8182",
"(	c #92999B",
"_	c #7A8081",
":	c #909799",
"<	c #989FA1",
"[	c #798081",
"}	c #8E9597",
"|	c #797F80",
"1	c #8B9294",
"2	c #787F80",
"3	c #899092",
"4	c #8F9698",
"5	c #787D7E",
"6	c #838A8B",
"7	c #868D8F",
"8	c #767C7D",
"9	c #73797B",
"0	c #72797A",
" .+@@@@@@@@@+. ",
".#$%%%%%%%%%$#.",
"&*===========*&",
"-;>>>>>>>>>>>;-",
",'))!!!!!!!))',",
",~{{!!!!!!!{{~,",
"]^{{!{{{{{!{{^]",
"/(##!#####!##(/",
"_:<<!<<<<<!<<:_",
"[}~~!~~~~~!~~}[",
"|1((!!!!!!!((1|",
"234444444444432",
"567777777777765",
" 8900000000098 ",
"               "};
