/* XPM */
static char * maximize_pressed_xpm[] = {
"15 15 58 1",
" 	c None",
".	c #535759",
"+	c #63696A",
"@	c #646A6B",
"#	c #64696B",
"$	c #63686A",
"%	c #525657",
"&	c #7A8183",
"*	c #82888A",
"=	c #83898B",
"-	c #484E50",
";	c #6A7173",
">	c #6B7274",
",	c #484D4F",
"'	c #474D4F",
")	c #6D7375",
"!	c #72797B",
"~	c #616368",
"{	c #474C4E",
"]	c #4B5052",
"^	c #737A7C",
"/	c #787F81",
"(	c #FEFEFE",
"_	c #4A5052",
":	c #505557",
"<	c #7B8284",
"[	c #7D8486",
"}	c #4F5557",
"|	c #54595B",
"1	c #82898B",
"2	c #838A8C",
"3	c #53595A",
"4	c #585E5F",
"5	c #878E90",
"6	c #858C8E",
"7	c #585D5F",
"8	c #5C6163",
"9	c #8C9395",
"0	c #888F91",
"a	c #5F6466",
"b	c #8F9698",
"c	c #899092",
"d	c #5E6465",
"e	c #5F6566",
"f	c #939A9C",
"g	c #969D9F",
"h	c #949B9D",
"i	c #676C6E",
"j	c #A5ACAE",
"k	c #A2A9AB",
"l	c #545859",
"m	c #949A9C",
"n	c #ADB4B6",
"o	c #AFB6B8",
"p	c #6A6F70",
"q	c #6B7172",
"r	c #6B7072",
"s	c #696E70",
" .+@@@@@@@##$% ",
".&*=========*&%",
"-;>>>>>>>>>>>;,",
"')!!~~~~~~~!!){",
"]^//(((((((//^_",
":<[[((((((([[<}",
"|122(22222(2213",
"4566(66666(6657",
"8900(00000(0098",
"abcc(~~~~~(ccbd",
"efbb(((((((bbfa",
"eghhhhhhhhhhhga",
"ijkkkkkkkkkkkji",
"lmnooooooooonf%",
" lpqqqqqqqrrs% "};
