/* XPM */
static char * right_active_xpm[] = {
"3 11 2 1",
" 	c #9A999A",
".	c #818179",
"  .",
"  .",
"  .",
"  .",
"  .",
"  .",
"  .",
"  .",
"  .",
"  .",
"  ."};
