/* XPM */
static char * title_2_inactive_xpm[] = {
"9 28 8 1",
" 	c #818279",
".	c #818379",
"+	c #818179",
"@	c #808179",
"#	c #9B9A9B",
"$	c #A5A4A5",
"%	c #A4A3A4",
"&	c #9A999A",
"   .++@++",
"#########",
"$$$$$$$$$",
"$$$$$$$$$",
"$$$$$$$$$",
"$$$$$$$$$",
"$$$$$$$$$",
"$$$$$$$$$",
"$$$$$$$$$",
"%%%%%%%%%",
"%%%%%%%%%",
"%%%%%%%%%",
"%%%%%%%%%",
"%%%%%%%%%",
"%%%%%%%%%",
"%%%%%%%%%",
"%%%%%%%%%",
"%%%%%%%%%",
"%%%%%%%%%",
"%%%%%%%%%",
"%%%%%%%%%",
"%%%%%%%%%",
"%%%%%%%%%",
"%%%%%%%%%",
"%%%%%%%%%",
"%%%%%%%%%",
"%%%%%%%%%",
"&&&&&&&&&"};
