/* XPM */
static char * top_left_active_xpm[] = {
"7 28 6 1",
" 	c None",
".	c #818179",
"+	c #9B9A9B",
"@	c #A4A3A4",
"#	c #A5A4A5",
"$	c #9A999A",
"  .....",
" ..++++",
"..@####",
".@#####",
".######",
".######",
".######",
".######",
".######",
".@@@@@@",
".@@@@@@",
".@@@@@@",
".@@@@@@",
".@@@@@@",
".@@@@@@",
".@@@@@@",
".@@@@@@",
".@@@@@@",
".@@@@@@",
".@@@@@@",
".@@@@@@",
".@@@@@@",
".@@@@@@",
".@@@@@@",
".@@@@@@",
".@@@@@@",
".@@@@@@",
".$$$$$$"};
