/* XPM */
static char * close_prelight_xpm[] = {
"21 21 37 1",
" 	c None",
".	c #4481D4",
"+	c #2E538E",
"@	c #4887D6",
"#	c #B8CFEE",
"$	c #70A1DF",
"%	c #8CB3E5",
"&	c #86AFE4",
"*	c #83ADE3",
"=	c #77A5E0",
"-	c #8BB2E4",
";	c #83ACE2",
">	c #9DBDE8",
",	c #8CB1E4",
"'	c #A6C3EA",
")	c #8AAFE3",
"!	c #A4C1E9",
"~	c #9DBEE8",
"{	c #91B6E5",
"]	c #6F9FDE",
"^	c #88B0E4",
"/	c #699DDD",
"(	c #82ADE3",
"_	c #6499DC",
":	c #7DAAE2",
"<	c #5F96DB",
"[	c #77A7E1",
"}	c #5A94DA",
"|	c #73A4E0",
"1	c #5691D9",
"2	c #6EA1DF",
"3	c #4787D6",
"4	c #669DDE",
"5	c #6A9FDF",
"6	c #4888D6",
"7	c #5C95DB",
"8	c #5F98DC",
"                     ",
"  .+++++++++++++++.  ",
" @+###############+@ ",
" +$%&***********&%$+ ",
" +=%-------------%=+ ",
" +;>>>>>>>>>>>>>>>;+ ",
" +,'''++'''''++''',+ ",
" +)!!!+++!!!+++~!!)+ ",
" +;>>>>+++>+++~~>>;+ ",
" +={{{{{+++++~~{{{=+ ",
" +]^^^^^^+++~~^^^^]+ ",
" +/(((((+++++(((((/+ ",
" +_::::+++~+++::::_+ ",
" +<[[[+++~~[+++[[[<+ ",
" +}|||++~~|||++~||}+ ",
" +12222~~22222~~221+ ",
" +34555555555555543+ ",
" .+678888888888876+. ",
"  .+++++++++++++++.  ",
"                     ",
"                     "};
