/* XPM */
static char * hide_active_xpm[] = {
"21 21 47 1",
" 	c None",
".	c #4481D4",
"+	c #3966AC",
"@	c #3865AC",
"#	c #4887D6",
"$	c #3A68AD",
"%	c #9DBEE8",
"&	c #3C6AAD",
"*	c #74A3E0",
"=	c #8CB3E5",
"-	c #85AEE3",
";	c #82ADE3",
">	c #3D6BAE",
",	c #7FAAE2",
"'	c #89B1E4",
")	c #86AFE4",
"!	c #88AFE4",
"~	c #92B6E6",
"{	c #8EB3E4",
"]	c #97BAE7",
"^	c #8BB2E4",
"/	c #95B8E7",
"(	c #86AFE3",
"_	c #91B6E5",
":	c #7DAAE1",
"<	c #88B0E4",
"[	c #76A6E0",
"}	c #81ADE3",
"|	c #73A3DF",
"1	c #7DAAE2",
"2	c #70A1DF",
"3	c #7AA8E1",
"4	c #6C9FDE",
"5	c #75A6E0",
"6	c #A0C0E9",
"7	c #689DDE",
"8	c #71A3E0",
"9	c #649BDD",
"0	c #6EA1DF",
"a	c #3E6BAE",
"b	c #5C96DB",
"c	c #689EDE",
"d	c #6A9FDF",
"e	c #3B6AAE",
"f	c #5C95DB",
"g	c #639ADD",
"h	c #3A69AD",
"                     ",
"  .+@@@@@@@@@@@@@+.  ",
" #$%%%%%%%%%%%%%%%$# ",
" &*=-;;;;;;;;;;;-=*& ",
" >,')))))))))))))',> ",
" >!~~~~~~~~~~~~~~~!> ",
" >{]]]]]]]]]]]]]]]{> ",
" >^///////////////^> ",
" >(_______________(> ",
" >:<<<<<<<<<<<<<<<:> ",
" >[}}}}}}}}}}}}}}}[> ",
" >|111111111111111|> ",
" >2333@@@@@@@333332> ",
" >4555@@@@@@@655554> ",
" >7888@@@@@@@688887> ",
" >90000666666600009> ",
" abcdddddddddddddcba ",
" .efg99999999999gfe. ",
"  .$hhhhhhhhhhhhh$.  ",
"                     ",
"                     "};
