/* XPM */
static char * maximize_pressed_xpm[] = {
"21 21 41 1",
" 	c None",
".	c #4481D4",
"+	c #2E538E",
"@	c #4887D6",
"#	c #B8CFEE",
"$	c #6098DC",
"%	c #83AEE3",
"&	c #7AA8E1",
"*	c #76A6E0",
"=	c #5491D9",
"-	c #6CA0DF",
";	c #699EDE",
">	c #689EDE",
",	c #528ED9",
"'	c #6A9FDF",
")	c #5691D9",
"!	c #6EA1DF",
"~	c #A0C0E9",
"{	c #5A94DA",
"]	c #73A4E0",
"^	c #5F96DB",
"/	c #77A7E1",
"(	c #6499DC",
"_	c #7DAAE2",
":	c #699DDD",
"<	c #82ADE3",
"[	c #6F9FDE",
"}	c #88B0E4",
"|	c #77A5E0",
"1	c #91B6E5",
"2	c #83ACE2",
"3	c #9DBDE8",
"4	c #8AAFE3",
"5	c #A4C1E9",
"6	c #8CB1E4",
"7	c #A6C3EA",
"8	c #77A4DF",
"9	c #98BAE7",
"0	c #6C9DDD",
"a	c #7FAAE2",
"b	c #82ACE3",
"                     ",
"  .+++++++++++++++.  ",
" @+###############+@ ",
" +$%&***********&%$+ ",
" +=-;>>>>>>>>>>>;-=+ ",
" +,'''+++++++++''',+ ",
" +)!!!+++++++++~!!)+ ",
" +{]]]+++++++++~]]{+ ",
" +^///+~~~~~~~+~//^+ ",
" +(___+~______+~__(+ ",
" +:<<<+~<<<<<<+~<<:+ ",
" +[}}}+~}}}}}}+~}}[+ ",
" +|111+~111111+~11|+ ",
" +2333+~333333+~332+ ",
" +4555+++++++++~554+ ",
" +67777~~~~~~~~~776+ ",
" +89333333333333398+ ",
" .+0abbbbbbbbbbba0+. ",
"  .+++++++++++++++.  ",
"                     ",
"                     "};
