/* XPM */
static char * title_1_active_xpm[] = {
"9 28 27 1",
" 	c None",
".	c #6185B8",
"+	c #5B97E0",
"@	c #5089D6",
"#	c #4E87D5",
"$	c #4F88D6",
"%	c #508AD7",
"&	c #518BD8",
"*	c #528CD9",
"=	c #548FDB",
"-	c #5690DC",
";	c #5893DE",
">	c #5995DF",
",	c #5C98E2",
"'	c #5D99E3",
")	c #5E9BE4",
"!	c #619EE6",
"~	c #63A0E7",
"{	c #64A2E9",
"]	c #65A2E9",
"^	c #66A4EA",
"/	c #68A7EC",
"(	c #6AA8EE",
"_	c #6CABEF",
":	c #6DACF0",
"<	c #6EADF1",
"[	c #64A3E6",
"         ",
".........",
"+++++++++",
"@@@@@@@@@",
"#########",
"#########",
"$$$$$$$$$",
"%%%%%%%%%",
"&&&&&&&&&",
"*********",
"=========",
"---------",
";;;;;;;;;",
">>>>>>>>>",
",,,,,,,,,",
"'''''''''",
")))))))))",
"!!!!!!!!!",
"~~~~~~~~~",
"{{{{{{{{{",
"]]]]]]]]]",
"^^^^^^^^^",
"/////////",
"(((((((((",
"_________",
":::::::::",
"<<<<<<<<<",
"[[[[[[[[["};
