/* XPM */
static char * title_1_inactive_xpm[] = {
"9 30 5 1",
" 	c None",
".	c #4B70A6",
"+	c #6697DC",
"@	c #4F88D6",
"#	c #5F93DA",
"         ",
".........",
"+++++++++",
"@@@@@@@@@",
"@@@@@@@@@",
"@@@@@@@@@",
"@@@@@@@@@",
"@@@@@@@@@",
"@@@@@@@@@",
"@@@@@@@@@",
"@@@@@@@@@",
"@@@@@@@@@",
"@@@@@@@@@",
"@@@@@@@@@",
"@@@@@@@@@",
"@@@@@@@@@",
"@@@@@@@@@",
"@@@@@@@@@",
"@@@@@@@@@",
"@@@@@@@@@",
"@@@@@@@@@",
"@@@@@@@@@",
"@@@@@@@@@",
"@@@@@@@@@",
"@@@@@@@@@",
"@@@@@@@@@",
"@@@@@@@@@",
"@@@@@@@@@",
"@@@@@@@@@",
"#########"};
