/* XPM */
static char * top_left_inactive_xpm[] = {
"7 28 5 1",
" 	c None",
".	c #4B70A6",
"+	c #6697DC",
"@	c #4F88D6",
"#	c #5F93DA",
"       ",
"  .....",
"  .++++",
" .@@@@@",
" .@@@@@",
".@@@@@@",
".@@@@@@",
".@@@@@@",
".@@@@@@",
".@@@@@@",
".@@@@@@",
".@@@@@@",
".@@@@@@",
".@@@@@@",
".@@@@@@",
".@@@@@@",
".@@@@@@",
".@@@@@@",
".@@@@@@",
".@@@@@@",
".@@@@@@",
".@@@@@@",
".@@@@@@",
".@@@@@@",
".@@@@@@",
".@@@@@@",
".@@@@@@",
".######"};
